<svg xmlns="http://www.w3.org/2000/svg" xmlns:xlink="http://www.w3.org/1999/xlink" width="39" height="40" viewBox="0 0 39 40"><defs><style>.a{fill:#fff;stroke:#707070;}.a,.c{stroke-width:2px;}.b{clip-path:url(#a);}.c{fill:none;stroke:#00995d;stroke-linecap:round;stroke-linejoin:round;}</style><clipPath id="a"><rect class="a" width="39" height="40" transform="translate(0.001)"/></clipPath></defs><g transform="translate(-40.216 -28.999)"><g transform="translate(40.215 28.999)"><g transform="translate(0)"><g class="b"><g transform="translate(1.734 5.322)"><path class="c" d="M30.535,72.388v-3.3A6.592,6.592,0,0,0,23.943,62.5H10.759a6.592,6.592,0,0,0-6.592,6.592v3.3" transform="translate(-4.167 -42.723)"/><circle class="c" cx="6.592" cy="6.592" r="6.592" transform="translate(6.592 0)"/><path class="c" d="M88.277,72.716v-3.3a6.592,6.592,0,0,0-4.944-6.378" transform="translate(-52.021 -43.051)"/><path class="c" d="M66.667,13.042a6.592,6.592,0,0,1,0,12.772" transform="translate(-41.946 -12.827)"/></g></g></g></g></g></svg>