<svg xmlns="http://www.w3.org/2000/svg" xmlns:xlink="http://www.w3.org/1999/xlink" width="100" height="100" viewBox="0 0 100 100"><defs><style>.a{fill:#fff;stroke:#707070;}.b{clip-path:url(#a);}.c{fill:#60656c;}</style><clipPath id="a"><rect class="a" width="100" height="100" transform="translate(573 241)"/></clipPath></defs><g class="b" transform="translate(-573 -241)"><path class="c" d="M80.26,58.171A12.612,12.612,0,1,0,64.822,70.551v5.917A17.594,17.594,0,0,1,47.347,94.141c-4.385,0-8.7-2.307-12.15-6.5a23.714,23.714,0,0,1-5.193-12,7.885,7.885,0,0,0,3.621-3.306l.233-.407.025-.044,4.244-7.726C47.366,60.584,53.8,52.715,53.8,43.6V9.351a5.462,5.462,0,0,0-5.683-5.2h-8.26V2.93a2.93,2.93,0,0,0-5.859,0v8.309a2.93,2.93,0,0,0,5.859,0V10.014h8.084V43.6c0,4.345-2.116,8.479-5.959,11.642a21.9,21.9,0,0,1-6.7,3.728c-.1.028-.191.061-.285.1a25.673,25.673,0,0,1-16.816-.259c-.047-.019-.094-.035-.141-.052a21.749,21.749,0,0,1-6.119-3.515c-3.842-3.162-5.959-7.3-5.959-11.642V10.014h8.084v1.225a2.93,2.93,0,0,0,5.859,0V2.93a2.93,2.93,0,1,0-5.859,0V4.155H5.781A5.462,5.462,0,0,0,.1,9.351V43.6c0,8.875,6.1,16.57,14.953,20.271l4.829,8.466A7.867,7.867,0,0,0,24.136,75.9,29.236,29.236,0,0,0,30.675,91.37c4.585,5.565,10.5,8.63,16.672,8.63A23.461,23.461,0,0,0,70.682,76.469V70.5A12.708,12.708,0,0,0,80.26,58.171ZM26.947,66.22a31.881,31.881,0,0,0,3.469-.188L28.76,69.047l-.221.385a2.045,2.045,0,0,1-3.572,0l-1.973-3.458a31.943,31.943,0,0,0,3.954.246Zm40.7-1.2A6.846,6.846,0,1,1,74.4,58.171,6.807,6.807,0,0,1,67.648,65.017Zm0,0" transform="translate(582.821 241)"/></g></svg>