<svg xmlns="http://www.w3.org/2000/svg" width="44" height="44" viewBox="0 0 44 44"><defs><style>.a{fill:none;stroke:#60656c;stroke-linecap:round;stroke-linejoin:round;stroke-width:4px;}</style></defs><g transform="translate(-941 -414)"><path class="a" d="M49.6,28.489a18.622,18.622,0,0,1-2,8.444A18.889,18.889,0,0,1,30.711,47.378a18.622,18.622,0,0,1-8.444-2L9.6,49.6l4.222-12.667a18.622,18.622,0,0,1-2-8.444A18.889,18.889,0,0,1,22.267,11.6a18.622,18.622,0,0,1,8.444-2h1.111A18.844,18.844,0,0,1,49.6,27.378Z" transform="translate(933.4 406.4)"/><path class="a" d="M9.09,11.193A6.281,6.281,0,0,1,21.3,13.286c0,4.188-6.281,6.281-6.281,6.281" transform="translate(949.141 417.852)"/><line class="a" transform="translate(964.334 444.445)"/></g></svg>