<svg xmlns="http://www.w3.org/2000/svg" xmlns:xlink="http://www.w3.org/1999/xlink" width="100" height="100" viewBox="0 0 100 100"><defs><style>.a{fill:#fff;stroke:#707070;}.b{clip-path:url(#a);}.c{fill:#00995d;}</style><clipPath id="a"><rect class="a" width="100" height="100" transform="translate(753 241)"/></clipPath></defs><g class="b" transform="translate(-753 -241)"><g transform="translate(753 241)"><path class="c" d="M91.382,51.893H80.456V11.68A11.7,11.7,0,0,0,68.767,0H31.234A11.7,11.7,0,0,0,19.545,11.68V51.893H7.836C3.662,51.893,0,55.917,0,60.5V97.07A2.93,2.93,0,0,0,2.932,100H97.068A2.93,2.93,0,0,0,100,97.07V60.5a8.625,8.625,0,0,0-8.618-8.612ZM5.863,60.5a2.788,2.788,0,0,1,1.973-2.753H19.545V94.141H5.863ZM25.408,11.681a5.83,5.83,0,0,1,5.826-5.821H68.767a5.83,5.83,0,0,1,5.825,5.821v82.46h-12.9V74.469a2.931,2.931,0,0,0-2.932-2.93H41.245a2.931,2.931,0,0,0-2.932,2.93V94.141h-12.9V11.681Zm30.416,82.46H44.176V77.4H55.824Zm38.312,0H80.456V57.752H91.382A2.757,2.757,0,0,1,94.137,60.5Zm0,0"/><path class="c" d="M45.56,22.293h1.509V23.8a2.932,2.932,0,0,0,5.863,0V22.293h1.509a2.93,2.93,0,1,0,0-5.859H52.932V14.925a2.932,2.932,0,0,0-5.863,0v1.508H45.56a2.93,2.93,0,1,0,0,5.859Zm0,0"/><path class="c" d="M54.057,38.071A2.93,2.93,0,0,0,56.989,41h6.741a2.93,2.93,0,1,0,0-5.859H56.989A2.931,2.931,0,0,0,54.057,38.071Zm0,0"/><path class="c" d="M36.271,41h6.741a2.93,2.93,0,1,0,0-5.859H36.271a2.93,2.93,0,1,0,0,5.859Zm0,0"/><path class="c" d="M63.729,58.578H56.988a2.93,2.93,0,1,0,0,5.859h6.741a2.93,2.93,0,1,0,0-5.859Zm0,0"/><path class="c" d="M43.012,64.438a2.93,2.93,0,1,0,0-5.859H36.272a2.93,2.93,0,1,0,0,5.859Zm0,0"/><path class="c" d="M63.729,46.86H56.988a2.93,2.93,0,1,0,0,5.859h6.741a2.93,2.93,0,1,0,0-5.859Zm0,0"/><path class="c" d="M36.271,52.719h6.741a2.93,2.93,0,1,0,0-5.859H36.271a2.93,2.93,0,1,0,0,5.859Zm0,0"/></g></g></svg>