<svg xmlns="http://www.w3.org/2000/svg" xmlns:xlink="http://www.w3.org/1999/xlink" width="100" height="100" viewBox="0 0 100 100"><defs><style>.a{fill:#fff;stroke:#707070;}.b{clip-path:url(#a);}.c{fill:#00995d;}</style><clipPath id="a"><rect class="a" width="100" height="100" transform="translate(753 241)"/></clipPath></defs><g class="b" transform="translate(-753 -241)"><path class="c" d="M91.233,82.294h-23.3q1.181-.837,2.3-1.786A33.068,33.068,0,0,0,80.557,64.372H84.1a2.93,2.93,0,1,0,0-5.859H57.158a2.93,2.93,0,1,0,0,5.859h4.267A14,14,0,0,1,50,70.326a14.322,14.322,0,0,1-9.812-4.108A11.85,11.85,0,0,0,35.982,55.25a15.744,15.744,0,0,1,7.332-11.894l4.712,4.781-.929.945a2.929,2.929,0,1,0,4.175,4.111L66.129,38.1c.037-.033.075-.063.11-.1.066-.065.126-.132.184-.2l2.769-2.811a2.93,2.93,0,0,0-4.176-4.111l-.842.855L39.143,6.335A5.215,5.215,0,0,0,35.4,4.767h0a5.269,5.269,0,0,0-1.711.285l-3.43-3.484A5.215,5.215,0,0,0,26.516,0h0a5.215,5.215,0,0,0-3.743,1.568L18.237,6.174a5.349,5.349,0,0,0,0,7.475l3.468,3.522a5.353,5.353,0,0,0,1.225,5.5l7.748,7.861A32.189,32.189,0,0,0,18.34,55.967c0,.944.041,1.894.123,2.834a11.834,11.834,0,0,0,6.165,16.643A32.722,32.722,0,0,0,32,82.294H8.767A8.777,8.777,0,0,0,0,91.061v.172A8.777,8.777,0,0,0,8.767,100H91.233A8.777,8.777,0,0,0,100,91.233v-.172a8.777,8.777,0,0,0-8.767-8.767ZM50,76.185A19.918,19.918,0,0,0,68.144,64.371h6.274a27.207,27.207,0,0,1-7.992,11.682A25.372,25.372,0,0,1,50,82.217a27.388,27.388,0,0,1-17.281-6.761,11.69,11.69,0,0,0,5-3.631A20.09,20.09,0,0,0,50,76.185ZM26.515,6.117l2.678,2.72-3.735,3.793L22.781,9.911ZM35.4,10.884,60.063,35.909l-7.926,8.051L27.473,18.935ZM34.823,34.74l4.287,4.35a21.594,21.594,0,0,0-8.692,13.683,11.484,11.484,0,0,0-6.1.736A26.288,26.288,0,0,1,34.823,34.74ZM28.69,58.5a5.914,5.914,0,1,1-5.777,5.913A5.852,5.852,0,0,1,28.69,58.5ZM94.141,91.233a2.911,2.911,0,0,1-2.908,2.908H8.767a2.911,2.911,0,0,1-2.908-2.908v-.172a2.911,2.911,0,0,1,2.908-2.908H91.233a2.911,2.911,0,0,1,2.908,2.908Zm0,0" transform="translate(753 241)"/></g></svg>