<svg xmlns="http://www.w3.org/2000/svg" width="42.561" height="52.451" viewBox="0 0 42.561 52.451"><defs><style>.a,.b,.c{fill:none;stroke:#00995d;stroke-linecap:round;stroke-linejoin:round;}.a{stroke-width:3px;}.b{stroke-width:2px;}</style></defs><g transform="translate(-1196.1 -416.3)"><path class="a" d="M36.362,5.818H16.581a4.945,4.945,0,0,0-4.945,4.945V50.324a4.945,4.945,0,0,0,4.945,4.945h29.67A4.945,4.945,0,0,0,51.2,50.324V20.653Z" transform="translate(1185.963 411.982)"/><path class="a" d="M40.727,5.818V20.653H55.562" transform="translate(1181.598 411.982)"/><line class="a" x1="19.78" transform="translate(1207.49 444.998)"/><line class="a" x1="19.78" transform="translate(1207.49 454.888)"/><circle class="b" cx="6.167" cy="6.167" r="6.167" transform="translate(1203.667 425.001)"/><line class="c" y2="7.194" transform="translate(1209.919 427.399)"/><path class="c" d="M9.7,5H7.177a1.177,1.177,0,1,0,0,2.354H8.858a1.177,1.177,0,1,1,0,2.354H6" transform="translate(1201.829 423.658)"/></g></svg>